<?xml version="1.0" encoding="us-ascii" standalone="no"?><svg xmlns="http://www.w3.org/2000/svg" xmlns:xlink="http://www.w3.org/1999/xlink" contentStyleType="text/css" height="62px" preserveAspectRatio="none" style="width:276px;height:62px;background:#FFFFFF;" version="1.1" viewBox="0 0 276 62" width="276px" zoomAndPan="magnify"><defs/><g><!--class Abteilung--><g id="elem_Abteilung"><rect codeLine="4" fill="#F1F1F1" height="48" id="Abteilung" rx="2.5" ry="2.5" style="stroke:#181818;stroke-width:0.5;" width="97" x="7" y="7"/><ellipse cx="22" cy="23" fill="#ADD1B2" rx="11" ry="11" style="stroke:#181818;stroke-width:1.0;"/><path d="M24.9688,28.6406 Q24.3906,28.9375 23.75,29.0781 Q23.1094,29.2344 22.4063,29.2344 Q19.9063,29.2344 18.5781,27.5938 Q17.2656,25.9375 17.2656,22.8125 Q17.2656,19.6875 18.5781,18.0313 Q19.9063,16.375 22.4063,16.375 Q23.1094,16.375 23.75,16.5313 Q24.4063,16.6875 24.9688,16.9844 L24.9688,19.7031 Q24.3438,19.125 23.75,18.8594 Q23.1563,18.5781 22.5313,18.5781 Q21.1875,18.5781 20.5,19.6563 Q19.8125,20.7188 19.8125,22.8125 Q19.8125,24.9063 20.5,25.9844 Q21.1875,27.0469 22.5313,27.0469 Q23.1563,27.0469 23.75,26.7813 Q24.3438,26.5 24.9688,25.9219 L24.9688,28.6406 Z " fill="#000000"/><text fill="#000000" font-family="sans-serif" font-size="14" lengthAdjust="spacing" textLength="65" x="36" y="27.8467">Abteilung</text><line style="stroke:#181818;stroke-width:0.5;" x1="8" x2="103" y1="39" y2="39"/><line style="stroke:#181818;stroke-width:0.5;" x1="8" x2="103" y1="47" y2="47"/></g><!--class Mitarbeiter--><g id="elem_Mitarbeiter"><rect codeLine="5" fill="#F1F1F1" height="48" id="Mitarbeiter" rx="2.5" ry="2.5" style="stroke:#181818;stroke-width:0.5;" width="105" x="164" y="7"/><ellipse cx="179" cy="23" fill="#ADD1B2" rx="11" ry="11" style="stroke:#181818;stroke-width:1.0;"/><path d="M181.9688,28.6406 Q181.3906,28.9375 180.75,29.0781 Q180.1094,29.2344 179.4063,29.2344 Q176.9063,29.2344 175.5781,27.5938 Q174.2656,25.9375 174.2656,22.8125 Q174.2656,19.6875 175.5781,18.0313 Q176.9063,16.375 179.4063,16.375 Q180.1094,16.375 180.75,16.5313 Q181.4063,16.6875 181.9688,16.9844 L181.9688,19.7031 Q181.3438,19.125 180.75,18.8594 Q180.1563,18.5781 179.5313,18.5781 Q178.1875,18.5781 177.5,19.6563 Q176.8125,20.7188 176.8125,22.8125 Q176.8125,24.9063 177.5,25.9844 Q178.1875,27.0469 179.5313,27.0469 Q180.1563,27.0469 180.75,26.7813 Q181.3438,26.5 181.9688,25.9219 L181.9688,28.6406 Z " fill="#000000"/><text fill="#000000" font-family="sans-serif" font-size="14" lengthAdjust="spacing" textLength="73" x="193" y="27.8467">Mitarbeiter</text><line style="stroke:#181818;stroke-width:0.5;" x1="165" x2="268" y1="39" y2="39"/><line style="stroke:#181818;stroke-width:0.5;" x1="165" x2="268" y1="47" y2="47"/></g><!--reverse link Abteilung to Mitarbeiter--><g id="link_Abteilung_Mitarbeiter"><path codeLine="8" d="M116.21,31 C135.05,31 144.75,31 163.95,31 " fill="none" id="Abteilung-backto-Mitarbeiter" style="stroke:#181818;stroke-width:1.0;"/><polygon fill="none" points="104.21,31,110.21,35,116.21,31,110.21,27,104.21,31" style="stroke:#181818;stroke-width:1.0;"/><text fill="#000000" font-family="sans-serif" font-size="13" lengthAdjust="spacing" textLength="8" x="111.9518" y="44.1782">1</text><text fill="#000000" font-family="sans-serif" font-size="13" lengthAdjust="spacing" textLength="7" x="149.068" y="44.1309">*</text></g><!--SRC=[LSkn2W8n48JXFa-nf1640stjKbfO-GIRkEujnaGsSurFBugWLmxp_UDcxS7ETogLnqY0MruWnzBRsPv2kr3b2a8dDvr15tCfiDv2-1IKCiJgqlIxJmRsB0Rn43QKL5sKtyNXPodEZBYoVzy-KfycYjkLU040]--></g></svg>