<?xml version="1.0" encoding="us-ascii" standalone="no"?><svg xmlns="http://www.w3.org/2000/svg" xmlns:xlink="http://www.w3.org/1999/xlink" contentStyleType="text/css" height="78px" preserveAspectRatio="none" style="width:393px;height:78px;background:#FFFFFF;" version="1.1" viewBox="0 0 393 78" width="393px" zoomAndPan="magnify"><defs/><g><!--class Drucker--><g id="elem_Drucker"><rect codeLine="3" fill="#F1F1F1" height="64.2969" id="Drucker" rx="2.5" ry="2.5" style="stroke:#181818;stroke-width:0.5;" width="182" x="7" y="7"/><ellipse cx="66.25" cy="23" fill="#ADD1B2" rx="11" ry="11" style="stroke:#181818;stroke-width:1.0;"/><path d="M69.2188,28.6406 Q68.6406,28.9375 68,29.0781 Q67.3594,29.2344 66.6563,29.2344 Q64.1563,29.2344 62.8281,27.5938 Q61.5156,25.9375 61.5156,22.8125 Q61.5156,19.6875 62.8281,18.0313 Q64.1563,16.375 66.6563,16.375 Q67.3594,16.375 68,16.5313 Q68.6563,16.6875 69.2188,16.9844 L69.2188,19.7031 Q68.5938,19.125 68,18.8594 Q67.4063,18.5781 66.7813,18.5781 Q65.4375,18.5781 64.75,19.6563 Q64.0625,20.7188 64.0625,22.8125 Q64.0625,24.9063 64.75,25.9844 Q65.4375,27.0469 66.7813,27.0469 Q67.4063,27.0469 68,26.7813 Q68.5938,26.5 69.2188,25.9219 L69.2188,28.6406 Z " fill="#000000"/><text fill="#000000" font-family="sans-serif" font-size="14" lengthAdjust="spacing" textLength="55" x="86.75" y="27.8467">Drucker</text><line style="stroke:#181818;stroke-width:0.5;" x1="8" x2="188" y1="39" y2="39"/><line style="stroke:#181818;stroke-width:0.5;" x1="8" x2="188" y1="47" y2="47"/><text fill="#000000" font-family="sans-serif" font-size="14" lengthAdjust="spacing" textLength="170" x="13" y="63.9951">+drucken(d: Dokument)</text></g><!--class Dokument--><g id="elem_Dokument"><rect codeLine="7" fill="#F1F1F1" height="48" id="Dokument" rx="2.5" ry="2.5" style="stroke:#181818;stroke-width:0.5;" width="105" x="281" y="15"/><ellipse cx="296" cy="31" fill="#ADD1B2" rx="11" ry="11" style="stroke:#181818;stroke-width:1.0;"/><path d="M298.9688,36.6406 Q298.3906,36.9375 297.75,37.0781 Q297.1094,37.2344 296.4063,37.2344 Q293.9063,37.2344 292.5781,35.5938 Q291.2656,33.9375 291.2656,30.8125 Q291.2656,27.6875 292.5781,26.0313 Q293.9063,24.375 296.4063,24.375 Q297.1094,24.375 297.75,24.5313 Q298.4063,24.6875 298.9688,24.9844 L298.9688,27.7031 Q298.3438,27.125 297.75,26.8594 Q297.1563,26.5781 296.5313,26.5781 Q295.1875,26.5781 294.5,27.6563 Q293.8125,28.7188 293.8125,30.8125 Q293.8125,32.9063 294.5,33.9844 Q295.1875,35.0469 296.5313,35.0469 Q297.1563,35.0469 297.75,34.7813 Q298.3438,34.5 298.9688,33.9219 L298.9688,36.6406 Z " fill="#000000"/><text fill="#000000" font-family="sans-serif" font-size="14" lengthAdjust="spacing" textLength="73" x="310" y="35.8467">Dokument</text><line style="stroke:#181818;stroke-width:0.5;" x1="282" x2="385" y1="47" y2="47"/><line style="stroke:#181818;stroke-width:0.5;" x1="282" x2="385" y1="55" y2="55"/></g><!--link Drucker to Dokument--><g id="link_Drucker_Dokument"><path codeLine="10" d="M189.28,39 C220.33,39 248.03,39 274.93,39 " fill="none" id="Drucker-to-Dokument" style="stroke:#181818;stroke-width:1.0;stroke-dasharray:7.0,7.0;"/><polygon fill="#181818" points="280.93,39,271.93,35,275.93,39,271.93,43,280.93,39" style="stroke:#181818;stroke-width:1.0;"/><text fill="#000000" font-family="sans-serif" font-size="13" lengthAdjust="spacing" textLength="30" x="220" y="35.0669">uses</text></g><!--SRC=[HOkn3e9044Jx_Oe9ZH0JjAOmCQ6nvWlEkrKlm1wvsol4-Eyg4Prkvhr9lPV9H3F23YQbeshqvwnyia4wFpFsDF15eG7HNsyAvoDRzK5eEQ2DsVOSyI2yiuLRkfIkGHlwFB9eHKzQxUz4j5cFadNM7q3PyiJYMEmTEnGvSIegMkMwFlpL1X_w0W00]--></g></svg>