<?xml version="1.0" encoding="us-ascii" standalone="no"?><svg xmlns="http://www.w3.org/2000/svg" xmlns:xlink="http://www.w3.org/1999/xlink" contentStyleType="text/css" height="117px" preserveAspectRatio="none" style="width:150px;height:117px;background:#FFFFFF;" version="1.1" viewBox="0 0 150 117" width="150px" zoomAndPan="magnify"><defs/><g><!--class Person--><g id="elem_Person"><rect codeLine="2" fill="#F1F1F1" height="96.8906" id="Person" rx="2.5" ry="2.5" style="stroke:#181818;stroke-width:0.5;" width="129" x="7" y="7"/><ellipse cx="43.6" cy="23" fill="#ADD1B2" rx="11" ry="11" style="stroke:#181818;stroke-width:1.0;"/><path d="M46.5688,28.6406 Q45.9906,28.9375 45.35,29.0781 Q44.7094,29.2344 44.0063,29.2344 Q41.5063,29.2344 40.1781,27.5938 Q38.8656,25.9375 38.8656,22.8125 Q38.8656,19.6875 40.1781,18.0313 Q41.5063,16.375 44.0063,16.375 Q44.7094,16.375 45.35,16.5313 Q46.0063,16.6875 46.5688,16.9844 L46.5688,19.7031 Q45.9438,19.125 45.35,18.8594 Q44.7563,18.5781 44.1313,18.5781 Q42.7875,18.5781 42.1,19.6563 Q41.4125,20.7188 41.4125,22.8125 Q41.4125,24.9063 42.1,25.9844 Q42.7875,27.0469 44.1313,27.0469 Q44.7563,27.0469 45.35,26.7813 Q45.9438,26.5 46.5688,25.9219 L46.5688,28.6406 Z " fill="#000000"/><text fill="#000000" font-family="sans-serif" font-size="14" lengthAdjust="spacing" textLength="49" x="62.4" y="27.8467">Person</text><line style="stroke:#181818;stroke-width:0.5;" x1="8" x2="135" y1="39" y2="39"/><text fill="#000000" font-family="sans-serif" font-size="14" lengthAdjust="spacing" textLength="93" x="13" y="55.9951">-name: String</text><text fill="#000000" font-family="sans-serif" font-size="14" lengthAdjust="spacing" textLength="61" x="13" y="72.292">-alter: int</text><line style="stroke:#181818;stroke-width:0.5;" x1="8" x2="135" y1="79.5938" y2="79.5938"/><text fill="#000000" font-family="sans-serif" font-size="14" lengthAdjust="spacing" textLength="117" x="13" y="96.5889">+sagHallo(): void</text></g><!--SRC=[BOgn2eD040Nx-ufNAa6mlivEku1ViD555i-zSBkcCEJV8-AKCsEhw9iARPWIcNNkHLwxyp1b7ULWjE4AU7AnhFW6d3HGsZXYF6zTRaN9kKI8-YKUC5fwIYbNTSGdonn-Vm00]--></g></svg>