<?xml version="1.0" encoding="us-ascii" standalone="no"?><svg xmlns="http://www.w3.org/2000/svg" xmlns:xlink="http://www.w3.org/1999/xlink" contentStyleType="text/css" height="62px" preserveAspectRatio="none" style="width:234px;height:62px;background:#FFFFFF;" version="1.1" viewBox="0 0 234 62" width="234px" zoomAndPan="magnify"><defs/><g><!--class Sch?ler--><g id="elem_Sch&#252;ler"><rect codeLine="4" fill="#F1F1F1" height="48" id="Sch&#252;ler" rx="2.5" ry="2.5" style="stroke:#181818;stroke-width:0.5;" width="84" x="7" y="7"/><ellipse cx="22" cy="23" fill="#ADD1B2" rx="11" ry="11" style="stroke:#181818;stroke-width:1.0;"/><path d="M24.9688,28.6406 Q24.3906,28.9375 23.75,29.0781 Q23.1094,29.2344 22.4063,29.2344 Q19.9063,29.2344 18.5781,27.5938 Q17.2656,25.9375 17.2656,22.8125 Q17.2656,19.6875 18.5781,18.0313 Q19.9063,16.375 22.4063,16.375 Q23.1094,16.375 23.75,16.5313 Q24.4063,16.6875 24.9688,16.9844 L24.9688,19.7031 Q24.3438,19.125 23.75,18.8594 Q23.1563,18.5781 22.5313,18.5781 Q21.1875,18.5781 20.5,19.6563 Q19.8125,20.7188 19.8125,22.8125 Q19.8125,24.9063 20.5,25.9844 Q21.1875,27.0469 22.5313,27.0469 Q23.1563,27.0469 23.75,26.7813 Q24.3438,26.5 24.9688,25.9219 L24.9688,28.6406 Z " fill="#000000"/><text fill="#000000" font-family="sans-serif" font-size="14" lengthAdjust="spacing" textLength="52" x="36" y="27.8467">Sch&#252;ler</text><line style="stroke:#181818;stroke-width:0.5;" x1="8" x2="90" y1="39" y2="39"/><line style="stroke:#181818;stroke-width:0.5;" x1="8" x2="90" y1="47" y2="47"/></g><!--class Lehrer--><g id="elem_Lehrer"><rect codeLine="5" fill="#F1F1F1" height="48" id="Lehrer" rx="2.5" ry="2.5" style="stroke:#181818;stroke-width:0.5;" width="76" x="151" y="7"/><ellipse cx="166" cy="23" fill="#ADD1B2" rx="11" ry="11" style="stroke:#181818;stroke-width:1.0;"/><path d="M168.9688,28.6406 Q168.3906,28.9375 167.75,29.0781 Q167.1094,29.2344 166.4063,29.2344 Q163.9063,29.2344 162.5781,27.5938 Q161.2656,25.9375 161.2656,22.8125 Q161.2656,19.6875 162.5781,18.0313 Q163.9063,16.375 166.4063,16.375 Q167.1094,16.375 167.75,16.5313 Q168.4063,16.6875 168.9688,16.9844 L168.9688,19.7031 Q168.3438,19.125 167.75,18.8594 Q167.1563,18.5781 166.5313,18.5781 Q165.1875,18.5781 164.5,19.6563 Q163.8125,20.7188 163.8125,22.8125 Q163.8125,24.9063 164.5,25.9844 Q165.1875,27.0469 166.5313,27.0469 Q167.1563,27.0469 167.75,26.7813 Q168.3438,26.5 168.9688,25.9219 L168.9688,28.6406 Z " fill="#000000"/><text fill="#000000" font-family="sans-serif" font-size="14" lengthAdjust="spacing" textLength="44" x="180" y="27.8467">Lehrer</text><line style="stroke:#181818;stroke-width:0.5;" x1="152" x2="226" y1="39" y2="39"/><line style="stroke:#181818;stroke-width:0.5;" x1="152" x2="226" y1="47" y2="47"/></g><!--link Sch?ler to Lehrer--><g id="link_Sch&#252;ler_Lehrer"><path codeLine="8" d="M91.03,31 C109.94,31 126.22,31 144.66,31 " fill="none" id="Sch&#252;ler-to-Lehrer" style="stroke:#181818;stroke-width:1.0;"/><polygon fill="#181818" points="150.66,31,141.66,27,145.66,31,141.66,35,150.66,31" style="stroke:#181818;stroke-width:1.0;"/><text fill="#000000" font-family="sans-serif" font-size="13" lengthAdjust="spacing" textLength="23" x="98.8922" y="44.1782">1..*</text><text fill="#000000" font-family="sans-serif" font-size="13" lengthAdjust="spacing" textLength="8" x="135.1182" y="44.4147">1</text></g><!--SRC=[DOn12i8m44NtESKd6q5eqGi8NOhkUe8n7SrWciXatFGy7iDTBsQLkliF_dlrBlb1IYD2ebexCvNBq_WOIkvbOknSugl12bHkqJ28SZ0fsRcVWJx4-PrOLpnpr0NS1bsjPHBwVZ6AuKGwIAOaDh-Ci_kByFkstNeqpM6PVYry0000]--></g></svg>