<?xml version="1.0" encoding="us-ascii" standalone="no"?><svg xmlns="http://www.w3.org/2000/svg" xmlns:xlink="http://www.w3.org/1999/xlink" contentStyleType="text/css" height="62px" preserveAspectRatio="none" style="width:213px;height:62px;background:#FFFFFF;" version="1.1" viewBox="0 0 213 62" width="213px" zoomAndPan="magnify"><defs/><g><!--class Haus--><g id="elem_Haus"><rect codeLine="4" fill="#F1F1F1" height="48" id="Haus" rx="2.5" ry="2.5" style="stroke:#181818;stroke-width:0.5;" width="67" x="7" y="7"/><ellipse cx="22" cy="23" fill="#ADD1B2" rx="11" ry="11" style="stroke:#181818;stroke-width:1.0;"/><path d="M24.9688,28.6406 Q24.3906,28.9375 23.75,29.0781 Q23.1094,29.2344 22.4063,29.2344 Q19.9063,29.2344 18.5781,27.5938 Q17.2656,25.9375 17.2656,22.8125 Q17.2656,19.6875 18.5781,18.0313 Q19.9063,16.375 22.4063,16.375 Q23.1094,16.375 23.75,16.5313 Q24.4063,16.6875 24.9688,16.9844 L24.9688,19.7031 Q24.3438,19.125 23.75,18.8594 Q23.1563,18.5781 22.5313,18.5781 Q21.1875,18.5781 20.5,19.6563 Q19.8125,20.7188 19.8125,22.8125 Q19.8125,24.9063 20.5,25.9844 Q21.1875,27.0469 22.5313,27.0469 Q23.1563,27.0469 23.75,26.7813 Q24.3438,26.5 24.9688,25.9219 L24.9688,28.6406 Z " fill="#000000"/><text fill="#000000" font-family="sans-serif" font-size="14" lengthAdjust="spacing" textLength="35" x="36" y="27.8467">Haus</text><line style="stroke:#181818;stroke-width:0.5;" x1="8" x2="73" y1="39" y2="39"/><line style="stroke:#181818;stroke-width:0.5;" x1="8" x2="73" y1="47" y2="47"/></g><!--class Raum--><g id="elem_Raum"><rect codeLine="5" fill="#F1F1F1" height="48" id="Raum" rx="2.5" ry="2.5" style="stroke:#181818;stroke-width:0.5;" width="72" x="134" y="7"/><ellipse cx="149" cy="23" fill="#ADD1B2" rx="11" ry="11" style="stroke:#181818;stroke-width:1.0;"/><path d="M151.9688,28.6406 Q151.3906,28.9375 150.75,29.0781 Q150.1094,29.2344 149.4063,29.2344 Q146.9063,29.2344 145.5781,27.5938 Q144.2656,25.9375 144.2656,22.8125 Q144.2656,19.6875 145.5781,18.0313 Q146.9063,16.375 149.4063,16.375 Q150.1094,16.375 150.75,16.5313 Q151.4063,16.6875 151.9688,16.9844 L151.9688,19.7031 Q151.3438,19.125 150.75,18.8594 Q150.1563,18.5781 149.5313,18.5781 Q148.1875,18.5781 147.5,19.6563 Q146.8125,20.7188 146.8125,22.8125 Q146.8125,24.9063 147.5,25.9844 Q148.1875,27.0469 149.5313,27.0469 Q150.1563,27.0469 150.75,26.7813 Q151.3438,26.5 151.9688,25.9219 L151.9688,28.6406 Z " fill="#000000"/><text fill="#000000" font-family="sans-serif" font-size="14" lengthAdjust="spacing" textLength="40" x="163" y="27.8467">Raum</text><line style="stroke:#181818;stroke-width:0.5;" x1="135" x2="205" y1="39" y2="39"/><line style="stroke:#181818;stroke-width:0.5;" x1="135" x2="205" y1="47" y2="47"/></g><!--reverse link Haus to Raum--><g id="link_Haus_Raum"><path codeLine="8" d="M86,31 C104.3,31 115.16,31 133.87,31 " fill="none" id="Haus-backto-Raum" style="stroke:#181818;stroke-width:1.0;"/><polygon fill="#181818" points="74,31,80,35,86,31,80,27,74,31" style="stroke:#181818;stroke-width:1.0;"/><text fill="#000000" font-family="sans-serif" font-size="13" lengthAdjust="spacing" textLength="8" x="82.2031" y="44.722">1</text><text fill="#000000" font-family="sans-serif" font-size="13" lengthAdjust="spacing" textLength="23" x="102.9813" y="44.3201">1..*</text></g><!--SRC=[BOmn3i8m34LtdyBAKgbIArZPs41ixGdIr8154rUnit0URiB5Q2Ec_wJ_tzSNfzLd7p4iNlLibdagHjSWQUGtuG4MkXkQOER7qt3cJC5O4a0ryEAB_d7m9G8qU9EuYlA-EjKU9rAZpTvv-7vAf0IrS4U7RTTjsVUjgmy_]--></g></svg>